<svg xmlns="http://www.w3.org/2000/svg" viewBox="0 0 122.85 122.85"><defs><style>.cls-1{fill:none;stroke:#808285;stroke-miterlimit:10;stroke-width:5px;}.cls-2{fill:#6d6e71;}</style></defs><title>Asset 1</title><g id="Layer_2" data-name="Layer 2"><g id="Layer_1-2" data-name="Layer 1"><circle class="cls-1" cx="61.43" cy="61.43" r="58.93"/><path class="cls-2" d="M87.75,90.57v-.06l1.76-66.32a1.58,1.58,0,0,0-.8-1.63,1.22,1.22,0,0,0-.36-.14h0l-.26,0H87.6l-.08,0h0l-.12,0-.11,0-.16.09-.08,0h0L17.7,70.24l-.12.1,0,0a1.12,1.12,0,0,0-.18.2l0,0c-.06.08-.11.17-.16.25h0a1.61,1.61,0,0,0,.11,1.6l.09.1.08.09.16.15.1.07a1.18,1.18,0,0,0,.19.11L18,73a1.57,1.57,0,0,0,.28.1l26.23,6.76L55,99.11l0,.11a.58.58,0,0,0,.05.14.59.59,0,0,0,.06.14s.05.1.07.14l.1.12.09.12.14.12.09.08h0a1.31,1.31,0,0,0,.39.2l.09,0a1.84,1.84,0,0,0,.41.06h0a1.27,1.27,0,0,0,.34,0,.24.24,0,0,0,.09,0,1,1,0,0,0,.24-.08l.11-.06.18-.12.1-.08a1.12,1.12,0,0,0,.18-.2l.05-.05,9.69-13.54L85.49,91.9a1.72,1.72,0,0,0,.64.16h0A1.58,1.58,0,0,0,87.68,91h0v0a1.57,1.57,0,0,0,0-.23S87.74,90.61,87.75,90.57ZM59.07,80.14,86.18,30.5,84.64,88.3ZM45,76.7,22.37,70.88,80.44,31ZM77.15,40.42,55.37,80.31a.94.94,0,0,0-.06.15l0,.05,0,.08h0a.64.64,0,0,1,0,.07,1.62,1.62,0,0,0-.07.44L55,92.56,47.45,78.69Zm-19,53.36.11-10.56,6.06,1.94Z"/></g></g></svg>